<svg width="64" height="64" viewBox="0 0 64 64" fill="none" xmlns="http://www.w3.org/2000/svg">
<path fill-rule="evenodd" clip-rule="evenodd" d="M32 64C49.6731 64 64 49.6731 64 32C64 14.3269 49.6731 0 32 0C14.3269 0 0 14.3269 0 32C0 49.6731 14.3269 64 32 64Z" fill="#22BE54"/>
<path fill-rule="evenodd" clip-rule="evenodd" d="M22.5772 22.0968C24.5934 20.7712 27.0066 20 29.6 20H31.9336C31.5528 17.7298 29.5784 16 27.2 16C24.549 16 22.4 18.149 22.4 20.8C22.4 21.2494 22.4617 21.6843 22.5772 22.0968ZM19.2 32.8C19.2 27.0562 23.8562 22.4 29.6 22.4H34.4C34.7984 22.4 35.1916 22.4224 35.5783 22.466C38.0873 20 43.2 20 43.2 20L41.061 24.8127C42.5512 26.0568 43.6879 27.7102 44.2984 29.6H45.6C46.4836 29.6 47.2 30.3163 47.2 31.2V34.4C47.2 35.2837 46.4836 36 45.6 36H44.2984C43.5525 38.3089 42.0212 40.2648 40.0193 41.5527L40.4492 43.9908C40.6027 44.861 40.0216 45.6909 39.1514 45.8443L37.5757 46.1222C36.7054 46.2756 35.8756 45.6945 35.7221 44.8243L35.4269 43.1499C35.0891 43.1831 34.7465 43.2 34.4 43.2H29.6C29.2535 43.2 28.9109 43.1831 28.5731 43.1499L28.2778 44.8243C28.1244 45.6945 27.2945 46.2756 26.4243 46.1222L24.8486 45.8443C23.9784 45.6909 23.3973 44.861 23.5507 43.9908L23.9806 41.5527C21.1048 39.7025 19.2 36.4737 19.2 32.8ZM40 30.4C40 31.2837 39.2836 32 38.4 32C37.5163 32 36.8 31.2837 36.8 30.4C36.8 29.5163 37.5163 28.8 38.4 28.8C39.2836 28.8 40 29.5163 40 30.4Z" fill="white"/>
</svg>
