<svg width="64" height="64" viewBox="0 0 64 64" fill="none" xmlns="http://www.w3.org/2000/svg">
<path fill-rule="evenodd" clip-rule="evenodd" d="M32 64C49.6731 64 64 49.6731 64 32C64 14.3269 49.6731 0 32 0C14.3269 0 0 14.3269 0 32C0 49.6731 14.3269 64 32 64Z" fill="#22BE54"/>
<path d="M30.6093 29.5947L37.6337 31.4036C39.2243 31.8132 40.3359 33.2475 40.3359 34.8899L40.3201 34.8923L40.3043 34.8904L33.3627 33.1494L32.8621 35.2603L40.3518 37.1388L47.6159 35.0857C47.6288 35.0821 47.6417 35.0786 47.6546 35.0753C48.4821 34.8644 49.324 35.3643 49.5349 36.1918C49.7663 37.0996 49.3613 38.05 48.5463 38.5119L38.5662 44.1687C37.4423 44.8057 36.1091 44.9628 34.8679 44.6045L26.8584 42.2923L23.8951 42.6341C23.8209 42.6427 23.7464 42.647 23.6717 42.647C22.5955 42.647 21.723 41.7745 21.723 40.6982V31.0124L30.6093 29.5947ZM18.0102 29.519C18.8938 29.519 19.6102 30.2354 19.6102 31.119V42.6578C19.6102 43.5415 18.8938 44.2578 18.0102 44.2578H16C15.1163 44.2578 14.4 43.5415 14.4 42.6578V31.119C14.4 30.2354 15.1163 29.519 16 29.519H18.0102ZM40.3709 19.2C42.6337 19.2 44.4746 21.0932 44.4746 23.4202C44.4746 25.7473 42.6337 27.6405 40.3709 27.6405C38.1081 27.6405 36.2671 25.7473 36.2671 23.4202C36.2671 21.0932 38.108 19.2 40.3709 19.2Z" fill="white"/>
</svg>
