<svg width="64" height="64" viewBox="0 0 64 64" fill="none" xmlns="http://www.w3.org/2000/svg">
<path fill-rule="evenodd" clip-rule="evenodd" d="M32 64C49.6731 64 64 49.6731 64 32C64 14.3269 49.6731 0 32 0C14.3269 0 0 14.3269 0 32C0 49.6731 14.3269 64 32 64Z" fill="#22BE54"/>
<path fill-rule="evenodd" clip-rule="evenodd" d="M17.6 24C17.6 22.2327 19.0327 20.8 20.8 20.8H43.2C44.9673 20.8 46.4 22.2327 46.4 24V25.6H17.6V24ZM17.6 28H46.4V40C46.4 41.7673 44.9673 43.2 43.2 43.2H20.8C19.0327 43.2 17.6 41.7673 17.6 40V28ZM39.2 37.6C38.7582 37.6 38.4 37.9582 38.4 38.4V39.2C38.4 39.6418 38.7582 40 39.2 40H42.4C42.8418 40 43.2 39.6418 43.2 39.2V38.4C43.2 37.9582 42.8418 37.6 42.4 37.6H39.2Z" fill="white"/>
</svg>
