<svg width="64" height="64" viewBox="0 0 64 64" fill="none" xmlns="http://www.w3.org/2000/svg">
<circle cx="32" cy="32" r="32" fill="#22BE54"/>
<path fill-rule="evenodd" clip-rule="evenodd" d="M34.8309 15.3985C35.1422 15.0894 35.647 15.0894 35.9583 15.3985L39.8846 19.2971C38.7889 20.5192 38.8315 22.3922 40.0106 23.5635C41.1901 24.7352 43.0772 24.7781 44.3084 23.6897L47.6801 27.0376C47.9915 27.3468 47.9915 27.8481 47.6801 28.1573L29.1053 46.601C28.794 46.9101 28.2893 46.9101 27.9779 46.601L24.3296 42.9784C25.0331 42.199 25.2974 41.1161 25.0229 40.0976C24.7335 39.0237 23.8891 38.1848 22.8078 37.8967C21.7816 37.6233 20.6901 37.8855 19.9046 38.5846L16.2561 34.9619C15.9447 34.6527 15.9447 34.1514 16.2561 33.8423L34.8309 15.3985ZM29.2459 30.7682L26.6046 33.384L30.675 33.1452L32.8334 36.7123L33.3163 32.4328L37.6232 31.9572L34.0259 29.8169L34.2723 25.7743L31.631 28.3901L27.807 26.9643L29.2459 30.7682Z" fill="white"/>
</svg>
