<svg width="64" height="64" viewBox="0 0 64 64" fill="none" xmlns="http://www.w3.org/2000/svg">
<path fill-rule="evenodd" clip-rule="evenodd" d="M32 64C49.6731 64 64 49.6731 64 32C64 14.3269 49.6731 0 32 0C14.3269 0 0 14.3269 0 32C0 49.6731 14.3269 64 32 64Z" fill="#22BE54"/>
<path fill-rule="evenodd" clip-rule="evenodd" d="M36.2667 20.0015C36.2667 19.3422 37.0193 18.9659 37.5467 19.3615L45.0133 24.9615C45.44 25.2815 45.44 25.9215 45.0133 26.2415L37.5467 31.8415C37.0193 32.237 36.2667 31.8607 36.2667 31.2015V27.2015H25.8667C25.4248 27.2015 25.0667 26.8433 25.0667 26.4015V24.8015C25.0667 24.3596 25.4248 24.0015 25.8667 24.0015H36.2667V20.0015ZM37.8667 37.6015C37.8667 37.1596 37.5085 36.8015 37.0667 36.8015H26.6667V32.8015C26.6667 32.1422 25.9141 31.7659 25.3867 32.1615L17.92 37.7615C17.4933 38.0815 17.4933 38.7215 17.92 39.0415L25.3867 44.6415C25.9141 45.037 26.6667 44.6607 26.6667 44.0015V40.0015H37.0667C37.5085 40.0015 37.8667 39.6433 37.8667 39.2015V37.6015Z" fill="white"/>
</svg>
