<svg width="64" height="64" viewBox="0 0 64 64" fill="none" xmlns="http://www.w3.org/2000/svg">
<path fill-rule="evenodd" clip-rule="evenodd" d="M32 64C49.6731 64 64 49.6731 64 32C64 14.3269 49.6731 0 32 0C14.3269 0 0 14.3269 0 32C0 49.6731 14.3269 64 32 64Z" fill="#22BE54"/>
<path fill-rule="evenodd" clip-rule="evenodd" d="M30.3719 18.264C30.3719 17.8973 30.6692 17.6 31.0359 17.6H32.9166C33.2834 17.6 33.5807 17.8973 33.5807 18.264V19.984C36.6502 20.4422 39.2162 22.2333 39.8486 25.2038C39.8904 25.4 39.9238 25.6954 39.9483 25.9695C39.9821 26.3481 39.6792 26.6666 39.2991 26.6666H37.3825C37.0447 26.6666 36.7619 26.4125 36.7001 26.0803C36.6483 25.8019 36.5747 25.4889 36.4812 25.2978C35.7996 23.9056 34.0585 23.1047 31.9763 23.1047C29.4959 23.1047 27.805 24.3236 27.805 26.6666C27.805 27.9061 28.759 28.45 32.3508 29.3062L32.6669 29.3816C37.8258 30.6147 39.9981 31.9415 39.9981 35.7333C39.9981 40.0613 37.4081 42.0435 33.5807 42.452V44.136C33.5807 44.5027 33.2834 44.8 32.9166 44.8H31.0359C30.6692 44.8 30.3719 44.5027 30.3719 44.136V42.4159C27.2812 41.9545 24.7011 40.1418 24.0911 37.1346C24.0543 36.9528 24.0246 36.6832 24.0025 36.4289C23.9695 36.0509 24.2724 35.7333 24.6519 35.7333H26.5684C26.907 35.7333 27.19 35.9884 27.251 36.3214C27.3002 36.59 27.3695 36.8885 27.4572 37.0727C28.1285 38.483 29.8795 39.2952 31.9763 39.2952C35.1297 39.2952 36.7894 38.3531 36.7894 35.7333C36.7894 34.1013 35.6957 33.4332 31.9274 32.5326L31.6131 32.4576C26.5543 31.2517 24.5962 30.1354 24.5962 26.6666C24.5962 22.8534 27.0737 20.551 30.3719 19.9972V18.264Z" fill="white"/>
</svg>
