<svg width="64" height="64" viewBox="0 0 64 64" fill="none" xmlns="http://www.w3.org/2000/svg">
<path fill-rule="evenodd" clip-rule="evenodd" d="M32 64C49.6731 64 64 49.6731 64 32C64 14.3269 49.6731 0 32 0C14.3269 0 0 14.3269 0 32C0 49.6731 14.3269 64 32 64Z" fill="#22BE54"/>
<path fill-rule="evenodd" clip-rule="evenodd" d="M19.2 24.8C19.2 27.8928 21.7072 30.4 24.8 30.4C27.8928 30.4 30.4 27.8928 30.4 24.8C30.4 21.7072 27.8928 19.2 24.8 19.2C21.7072 19.2 19.2 21.7072 19.2 24.8ZM42.1657 20.7029C41.8532 20.3905 41.3467 20.3905 41.0343 20.7029L20.7029 41.0343C20.3905 41.3467 20.3905 41.8533 20.7029 42.1657L21.8343 43.2971C22.1467 43.6095 22.6532 43.6095 22.9657 43.2971L43.297 22.9657C43.6095 22.6533 43.6095 22.1467 43.297 21.8343L42.1657 20.7029ZM39.2 44.8C36.1072 44.8 33.6 42.2928 33.6 39.2C33.6 36.1072 36.1072 33.6 39.2 33.6C42.2928 33.6 44.8 36.1072 44.8 39.2C44.8 42.2928 42.2928 44.8 39.2 44.8ZM39.2 41.6C40.5255 41.6 41.6 40.5255 41.6 39.2C41.6 37.8745 40.5255 36.8 39.2 36.8C37.8745 36.8 36.8 37.8745 36.8 39.2C36.8 40.5255 37.8745 41.6 39.2 41.6ZM27.2 24.8C27.2 26.1255 26.1255 27.2 24.8 27.2C23.4745 27.2 22.4 26.1255 22.4 24.8C22.4 23.4745 23.4745 22.4 24.8 22.4C26.1255 22.4 27.2 23.4745 27.2 24.8Z" fill="white"/>
</svg>
