<svg width="64" height="64" viewBox="0 0 64 64" fill="none" xmlns="http://www.w3.org/2000/svg">
<path fill-rule="evenodd" clip-rule="evenodd" d="M32 64C49.6731 64 64 49.6731 64 32C64 14.3269 49.6731 0 32 0C14.3269 0 0 14.3269 0 32C0 49.6731 14.3269 64 32 64Z" fill="#22BE54"/>
<path fill-rule="evenodd" clip-rule="evenodd" d="M32.5052 40.3874C32.5852 40.3389 32.6252 40.3146 32.6694 40.3144H32.6712C32.7154 40.3146 32.7554 40.3389 32.8354 40.3874L38.9848 44.1167C40.0812 44.7816 40.6293 45.114 40.9719 44.8719C40.976 44.8691 40.98 44.8661 40.984 44.8631C41.3208 44.6131 41.1758 43.9886 40.8858 42.7397L39.2512 35.699C39.2302 35.6086 39.2197 35.5635 39.233 35.5216L39.2335 35.5199C39.2473 35.4782 39.2823 35.4478 39.3523 35.3868L44.8022 30.643C45.7649 29.805 46.2463 29.386 46.121 28.9866C46.1195 28.9818 46.118 28.9771 46.1164 28.9723C45.9818 28.576 45.3459 28.5218 44.0742 28.4133L36.9083 27.8025C36.8154 27.7946 36.769 27.7906 36.7332 27.7649L36.7318 27.7639C36.6963 27.7377 36.6782 27.6948 36.642 27.609L33.8438 20.9752C33.3459 19.795 33.097 19.2049 32.6778 19.2C32.6728 19.2 32.6678 19.2 32.6628 19.2C32.2435 19.2049 31.9946 19.795 31.4968 20.9752L28.6986 27.609C28.6624 27.6948 28.6443 27.7377 28.6088 27.7639L28.6074 27.7649C28.5715 27.7906 28.5251 27.7946 28.4323 27.8025L21.2664 28.4133C19.9946 28.5218 19.3588 28.576 19.2242 28.9723C19.2226 28.9771 19.221 28.9818 19.2195 28.9866C19.0943 29.386 19.5756 29.805 20.5384 30.643L25.9883 35.3868C26.0583 35.4478 26.0933 35.4782 26.107 35.5199L26.1076 35.5216C26.1209 35.5635 26.1104 35.6086 26.0894 35.699L24.4547 42.7397C24.1647 43.9886 24.0198 44.6131 24.3565 44.8631C24.3606 44.8661 24.3646 44.8691 24.3687 44.8719C24.7113 45.114 25.2594 44.7816 26.3557 44.1167L32.5052 40.3874Z" fill="white"/>
</svg>
