<svg width="96" height="48" viewBox="0 0 96 48" fill="none" xmlns="http://www.w3.org/2000/svg">
<path fill-rule="evenodd" clip-rule="evenodd" d="M8.88809 36.4416H3.32879V30.5714H12.5971C13.2159 30.5714 13.6421 30.222 13.6421 29.6248C13.6421 29.0543 13.2159 28.6977 12.5971 28.6977H3.08903C2.02343 28.6977 1.41797 29.2962 1.41797 30.3833V46.0592C1.41797 47.1463 2.02343 47.7448 3.08903 47.7448H8.88809C12.4506 47.7448 14.514 45.6561 14.514 42.0089C14.514 38.4557 12.4506 36.4416 8.88809 36.4416ZM8.6484 45.8772H3.32886V38.2689H8.6484C11.4311 38.2689 12.5766 39.6454 12.5766 42.0223C12.5766 44.4542 11.4311 45.8772 8.6484 45.8772ZM94.6159 13.9769C93.9693 13.9903 93.6096 14.38 93.3638 14.8087C92.871 15.8836 91.826 16.6433 90.3947 16.6433C88.3761 16.6433 87.1845 15.4133 87.0186 13.6007C86.9315 12.626 86.9315 11.5047 87.0186 10.5312C87.1845 8.71127 88.3906 7.48251 90.3947 7.48251C91.826 7.48251 92.8577 8.22758 93.3638 9.32931C93.6169 9.74583 93.9693 10.1428 94.6159 10.1489C95.4405 10.155 96 9.63834 96 8.81876C96 8.39491 95.8401 7.9723 95.5871 7.50938C94.7552 5.95082 92.9509 4.70129 90.3535 4.70129C86.8515 4.70129 84.4951 6.93163 84.2021 10.122C84.1015 11.1822 84.1003 12.9411 84.2021 14.0038C84.5084 17.1917 86.8515 19.4294 90.3535 19.4294C92.9509 19.4294 94.7552 18.1872 95.5943 16.6164C95.8474 16.1523 96 15.7297 96 15.3058C96 14.5009 95.4405 13.9561 94.6159 13.9769V13.9769ZM40.8792 19.1741H46.5512C50.2408 19.1741 52.4241 17.0122 52.4241 13.1769C52.4241 9.55773 50.2408 7.53625 46.5512 7.53625H41.5852V2.90823H49.9345C50.8463 2.90823 51.4384 2.36469 51.4384 1.49869C51.4384 0.671769 50.8463 0.128235 49.9345 0.128235H40.8792C39.4479 0.128235 38.6621 0.913621 38.6621 2.36469V16.9389C38.6621 18.3887 39.4479 19.1741 40.8792 19.1741ZM41.5852 10.1489H46.2448C48.4499 10.1489 49.4343 11.2836 49.4343 13.2379C49.4343 15.2252 48.4499 16.4076 46.2448 16.4076H41.5852V10.1489L41.5852 10.1489ZM75.3443 4.70129C72.8546 4.70129 70.8639 5.58806 70.0647 6.06441C69.412 6.45406 69.3394 6.76307 69.3394 7.86481V22.5123C69.3394 23.4662 69.8915 24.0305 70.7573 24.0305C71.6292 24.0305 72.1886 23.4662 72.1886 22.5123V18.6916C73.0411 19.1069 74.3465 19.4294 75.5913 19.4294C78.8801 19.4294 81.1373 17.2198 81.4376 14.0306C81.5369 12.9558 81.5369 11.1822 81.4376 10.1013C81.1446 6.90476 78.8801 4.70129 75.3443 4.70129ZM78.6004 13.6007C78.4357 15.4195 77.3095 16.6568 75.251 16.6568C74.1866 16.6568 72.8485 16.327 72.1886 15.8567V8.27404C72.8485 7.79769 74.1866 7.46912 75.251 7.46912C77.3096 7.46912 78.4381 8.70521 78.6004 10.5313C78.6827 11.4449 78.6912 12.6065 78.6004 13.6007ZM41.6954 33.399C41.0996 33.399 40.7545 33.7618 40.7545 34.4103V39.5746H32.9139V34.4103C32.9139 33.7618 32.5675 33.399 31.9718 33.399C31.3821 33.399 31.0297 33.7618 31.0297 34.4103V46.8605C31.0297 47.5103 31.3821 47.8718 31.9718 47.8718C32.5675 47.8718 32.9139 47.5103 32.9139 46.8605V41.3481H40.7545V46.8605C40.7545 47.5103 41.0996 47.8718 41.6954 47.8718C42.2851 47.8718 42.6314 47.5103 42.6314 46.8605V34.4103C42.6314 33.7618 42.2851 33.399 41.6954 33.399ZM51.3742 40.4662L56.8269 34.9661C57.0849 34.7059 57.1963 34.4958 57.1963 34.1978C57.1963 33.7654 56.8996 33.399 56.3922 33.399C56.1258 33.399 55.9151 33.4894 55.679 33.7288L50.3485 39.1055C50.0507 39.406 49.7467 39.5746 49.3253 39.5746H48.2282V34.4103C48.2282 33.7618 47.8819 33.399 47.2861 33.399C46.6964 33.399 46.3441 33.7618 46.3441 34.4103V46.8605C46.3441 47.5103 46.6964 47.8718 47.2861 47.8718C47.8819 47.8718 48.2282 47.5103 48.2282 46.8605V41.3481H49.197C49.6184 41.3481 49.9211 41.5167 50.2202 41.8184L55.88 47.5261C56.1282 47.7778 56.3486 47.8718 56.6283 47.8718C57.1611 47.8718 57.4723 47.4883 57.4723 47.0339C57.4723 46.72 57.3549 46.5001 57.0849 46.2277L51.3742 40.4662L51.3742 40.4662ZM60.289 4.70129C58.6978 4.70129 57.2581 5.10925 56.3402 5.4879C55.5664 5.80669 55.2358 6.25985 55.2419 6.86446C55.2492 7.57656 55.782 8.09933 56.448 8.09933C56.7664 8.09933 57.12 7.9723 57.499 7.82451C58.0984 7.58267 59.0841 7.32128 60.0698 7.32128C62.2603 7.32128 63.1516 8.15308 63.1516 9.85943V11.0076C61.8934 10.6656 60.8617 10.5178 59.6835 10.5178C56.0944 10.5178 54.3434 12.5796 54.3434 14.8429C54.3434 17.4617 56.3075 19.4294 59.7828 19.4294C62.4868 19.4294 64.5441 18.5231 65.3688 17.9527C65.7623 17.6766 65.9016 17.4152 65.9016 16.8778V9.9205C65.9016 6.34047 63.8575 4.7013 60.289 4.7013V4.70129ZM63.1516 16.2598C62.3064 16.7105 61.1475 17.0317 60.0359 17.0317C58.205 17.0317 57.0595 16.2329 57.0595 14.8429C57.0595 13.5873 58.0391 12.6125 60.0226 12.6125C61.0676 12.6125 61.9939 12.7677 63.1516 13.117V16.2598ZM22.3692 33.272C20.7296 33.272 19.13 33.7227 18.263 34.1196C17.6805 34.3725 17.4153 34.6449 17.4287 35.1176C17.4432 35.6025 17.8162 35.9848 18.2763 35.9848C18.5003 35.9848 18.7704 35.8956 19.0355 35.7735C19.6991 35.4864 20.9524 35.1102 22.1791 35.1102C24.6118 35.1102 25.7367 36.1081 25.7367 38.3287V39.6552C24.211 39.2106 23.1139 39.053 21.8001 39.053C18.2424 39.053 16.4333 41.1173 16.4333 43.4551C16.4333 46.196 18.4797 48.0001 21.7177 48.0001C24.395 48.0001 26.4403 47.0498 27.1995 46.4965C27.5047 46.2778 27.5931 46.0995 27.5931 45.6757V38.2811C27.5931 34.8635 25.6278 33.272 22.3692 33.272H22.3692ZM25.7367 45.2384C24.6929 45.8064 23.2762 46.2156 21.9623 46.2156C19.618 46.2156 18.2896 45.2115 18.2896 43.4759C18.2896 41.9173 19.4557 40.7484 21.9623 40.7484C23.2083 40.7484 24.2594 40.9329 25.7367 41.3701V45.2384ZM30.6604 16.8339L25.7513 11.8809L30.4109 7.18085C30.7718 6.81686 30.957 6.45532 30.957 6.03758C30.957 5.34259 30.4594 4.82959 29.7461 4.82959C29.3332 4.82959 29.0256 4.98226 28.626 5.38534L23.8914 10.1599C23.6334 10.4213 23.3549 10.5679 22.9892 10.5679H22.0217V6.34661C22.0217 5.38657 21.4683 4.82959 20.5965 4.82959C19.7307 4.82959 19.1785 5.38657 19.1785 6.34661V17.778C19.1785 18.7381 19.7307 19.3024 20.5965 19.3024C21.4683 19.3024 22.0217 18.7381 22.0217 17.778V13.2148H22.8306C23.1975 13.2148 23.4748 13.3613 23.7339 13.6227L28.7859 18.7186C29.2048 19.1412 29.5282 19.3024 29.9617 19.3024C30.7112 19.3024 31.2331 18.7625 31.2331 18.0333C31.2331 17.5948 31.0394 17.215 30.6604 16.8339L30.6604 16.8339ZM16.9976 17.9185C16.9976 17.6498 16.9516 17.3945 16.8051 16.9914L11.5448 2.5186C10.9128 0.752412 9.9864 0 8.51514 0C7.04994 0 6.11874 0.752412 5.48544 2.5186L0.192535 16.9988C0.0326919 17.4482 0 17.717 0 17.9258C0 18.6782 0.592136 19.3024 1.41798 19.3024C2.09004 19.3024 2.5962 18.9592 2.87592 18.1274L4.58694 13.2074H12.4022L14.1277 18.1408C14.4014 18.9592 14.9076 19.3024 15.5736 19.3024C16.4055 19.3024 16.9976 18.6782 16.9976 17.9185ZM5.50243 10.5764L8.10952 3.08292C8.20882 2.82153 8.296 2.72748 8.48854 2.72748C8.68228 2.72748 8.76826 2.82153 8.8615 3.08292L11.4819 10.5764H5.50243Z" fill="#10002B"/>
</svg>
