<svg width="136" height="48" viewBox="0 0 136 48" fill="none" xmlns="http://www.w3.org/2000/svg">
<path fill-rule="evenodd" clip-rule="evenodd" d="M80.1386 15.9334L69.4741 17.8788C67.7056 18.2014 66.5282 19.9166 66.8474 21.7119C67.1642 23.5058 68.8587 24.699 70.6248 24.3764L81.2892 22.4309C83.8285 21.9667 85.3943 23.5071 86.0158 25.1016C86.6373 26.6961 86.5292 28.9063 84.3662 30.3272L68.7118 40.6159C67.2589 41.5702 65.488 41.6379 63.9695 40.8018C62.451 39.9646 61.5443 38.4181 61.5443 36.6647V11.337C61.5443 7.1247 59.3667 3.40989 55.7193 1.39918C52.073 -0.612755 47.815 -0.44653 44.3314 1.84368L4.96166 27.7169C0.53249 30.6289 -1.14134 35.9308 0.79832 40.9102C2.73919 45.8896 7.5325 48.5972 12.7288 47.6515L47.1061 41.3818C48.8759 41.0592 50.052 39.344 49.734 37.5488C49.4172 35.7548 47.7227 34.5604 45.9554 34.8842L11.5769 41.154C9.03519 41.617 7.47303 40.0779 6.85154 38.4833C6.2313 36.89 6.33689 34.6799 8.50111 33.2577L47.8696 7.38328C49.3189 6.43025 51.0922 6.3613 52.6119 7.19858C54.1292 8.03586 55.0359 9.5836 55.0359 11.337V36.6647C55.0359 40.8757 57.2135 44.5905 60.8609 46.6025C62.5554 47.5358 64.381 48 66.1992 48C68.2967 48 70.3844 47.3831 72.25 46.158L87.9045 35.868C92.3361 32.9573 94.0087 27.6553 92.0678 22.676C90.1282 17.6954 85.3288 14.989 80.1386 15.9334ZM135.201 22.6747C133.262 17.6954 128.465 14.9853 123.272 15.9334L112.607 17.8789C110.838 18.2015 109.662 19.9166 109.98 21.7119C110.297 23.5059 111.989 24.699 113.758 24.3764L124.423 22.431C126.961 21.9668 128.528 23.5071 129.148 25.1016C129.77 26.6962 129.663 28.9063 127.5 30.3272L111.844 40.616C110.391 41.5702 108.62 41.6379 107.102 40.8019C105.585 39.9646 104.678 38.4181 104.678 36.6647V3.32002C104.678 1.49771 103.22 0.018919 101.424 0.018919C99.6261 0.018919 98.1696 1.49771 98.1696 3.32002V36.6647C98.1696 40.8758 100.347 44.5906 103.993 46.6025C105.688 47.5358 107.515 48 109.333 48C111.429 48 113.517 47.3831 115.382 46.158L131.038 35.8681C135.469 32.9573 137.141 27.6553 135.201 22.6747Z" fill="#009D32"/>
</svg>
